<?xml version="1.0" encoding="UTF-8"?>
<svg id="Layer_1" data-name="Layer 1" xmlns="http://www.w3.org/2000/svg" xmlns:xlink="http://www.w3.org/1999/xlink" viewBox="0 0 90.71 90.71">
  <defs>
    <style>
      .cls-1, .cls-2, .cls-3, .cls-4, .cls-5, .cls-6 {
        fill: none;
      }

      .cls-1, .cls-2, .cls-5, .cls-6 {
        stroke: #f36c3b;
      }

      .cls-2 {
        stroke-width: 4px;
      }

      .cls-7 {
        clip-path: url(#clippath-1);
      }

      .cls-4 {
        stroke: #f79421;
      }

      .cls-5 {
        stroke-width: 3px;
      }

      .cls-8 {
        fill: #f36c3b;
      }

      .cls-9 {
        fill: #f79440;
      }

      .cls-10 {
        clip-path: url(#clippath-2);
      }

      .cls-6 {
        stroke-width: 2px;
      }

      .cls-11 {
        clip-path: url(#clippath);
      }
    </style>
    <clipPath id="clippath">
      <rect class="cls-3" width="90.71" height="90.71"/>
    </clipPath>
    <clipPath id="clippath-1">
      <rect class="cls-3" width="90.71" height="90.71"/>
    </clipPath>
    <clipPath id="clippath-2">
      <rect class="cls-3" width="90.71" height="90.71"/>
    </clipPath>
  </defs>
  <g class="cls-11">
    <path class="cls-5" d="M12.14,17.19c-2.21,0-3.99,1.69-3.99,3.76v34.36c0,2.08,1.79,3.76,3.99,3.76h66.43c2.2,0,3.99-1.69,3.99-3.76V20.95c0-2.08-1.79-3.76-3.99-3.76H12.14Z"/>
  </g>
  <polygon class="cls-8" points="40.68 59.41 50.45 59.41 45.34 74.29 40.68 59.41"/>
  <polygon class="cls-2" points="42.79 60.96 48.28 60.96 45.41 69.32 42.79 60.96"/>
  <g class="cls-7">
    <path class="cls-9" d="M36.65,39.43c0,3.74-3.34,6.77-7.47,6.77s-7.47-3.03-7.47-6.77,3.34-6.78,7.47-6.78,7.47,3.03,7.47,6.78M43.68,41.43v-3.94c0-.56-.48-1.02-1.08-1.03l-1.63-.03c-.21,0-.45-.16-.53-.34l-.68-1.55c-.08-.18-.02-.44.13-.57l1.12-.99c.31-.27.31-.72.02-1l-3.14-2.98c-.42-.4-1.1-.4-1.52,0l-1.01.94c-.15.14-.43.2-.63.15l-1.66-.49c-.2-.06-.38-.26-.4-.46l-.17-1.92c-.05-.55-.57-1-1.17-.99l-3.66.04c-.6,0-1.13.46-1.19,1.01l-.17,1.51c-.04.39-.4.81-.8.94l-1.08.35c-.2.06-.49.01-.64-.12l-1.42-1.19c-.31-.26-.81-.26-1.12.01l-2.98,2.64c-.43.38-.45,1.02-.04,1.42l.67.65c.41.4.52,1.12.24,1.62l-.69,1.22-2.17.15c-.42.03-.76.37-.76.76v4.01c0,.55.49,1.03,1.09,1.07q2.39.14,2.05.14c-.33,0,.5,1.26.5,1.26.2.52.02,1.25-.42,1.63l-1.12.98c-.15.13-.15.35,0,.49l3.39,2.98c.43.38,1.13.38,1.57,0l1.1-.97c.15-.14.43-.18.63-.1l1.57.62c.19.08.37.3.4.49l.23,1.76c.05.39.43.7.85.7h4.38c.6,0,1.06-.45,1.04-1.01l-.06-1.55c0-.19.15-.41.35-.47l1.68-.56c.2-.07.48-.01.64.12l1.41,1.19c.31.26.8.25,1.09-.04l2.83-2.77c.41-.4.41-1.05,0-1.46l-.83-.82c-.15-.14-.21-.41-.15-.6l.52-1.5c.13-.37.57-.68.99-.68h1.68c.42,0,.76-.32.76-.71"/>
    <path class="cls-4" d="M36.25,39.43c0,3.52-3.16,6.37-7.07,6.37s-7.07-2.85-7.07-6.37,3.16-6.37,7.07-6.37,7.07,2.85,7.07,6.37Z"/>
  </g>
  <polygon class="cls-1" points="45.97 21.14 48.1 22.9 45.85 26.29 44.37 26.88 33.77 36.91 31.48 35.01 42 24.71 42.53 23.36 45.97 21.14"/>
  <g class="cls-10">
    <path class="cls-1" d="M18.21,54.84q-3.09-2.18-4.06-3.36c-.97-1.17.19-2.27.19-2.27l10.79-11,1.88-.05,1.3-1.36,3.88,3.25-1.3,1.36.16,1.75-10.5,11.25q-1.03,1.18-2.39.41"/>
    <path class="cls-1" d="M27.35,35.69c-.19-.15-.2-.4-.02-.56l1.05-.95c.18-.16.48-.17.67-.02l6.18,4.85c.19.15.2.4.02.56l-1.04.92c-.18.16-.48.17-.67.02l-6.18-4.82Z"/>
    <path class="cls-8" d="M32.04,73.53h26.64c.35,0,.63.28.63.63v.6c0,.35-.28.63-.63.63h-26.64c-.35,0-.63-.28-.63-.63v-.6c0-.35.28-.63.63-.63Z"/>
    <path class="cls-6" d="M32.87,74.71c-.32,0-.58.04-.58.09v.09c0,.05.26.09.58.09h24.41c.32,0,.58-.04.58-.09v-.09s-.26-.09-.58-.09h-24.41Z"/>
  </g>
  <g>
    <path d="M44.73,52.47c0,.88-.24,1.65-.71,2.31-.47.66-1.14,1.14-1.99,1.47-.85.32-1.88.48-3.08.48-1.39,0-2.67-.24-3.82-.71v-3.65c.56.41,1.17.74,1.85.99.67.25,1.3.38,1.88.38.44,0,.78-.08,1.02-.24.24-.16.36-.39.36-.69,0-.22-.06-.41-.18-.57-.12-.16-.3-.32-.55-.46-.24-.14-.7-.34-1.36-.58-2.14-.82-3.21-2.15-3.21-3.99,0-1.29.49-2.31,1.47-3.08.98-.77,2.29-1.16,3.93-1.16.46,0,.89.02,1.28.06s.74.08,1.06.14c.32.06.77.16,1.34.32v3.39c-1.12-.61-2.22-.92-3.3-.92-.45,0-.8.08-1.08.25-.27.17-.41.4-.41.69s.11.51.33.69c.22.18.68.42,1.38.71,1.38.56,2.35,1.17,2.93,1.83.57.66.86,1.45.86,2.36Z"/>
    <path d="M53.71,56.49l-2.95-5.62c-.2-.45-.32-.75-.35-.92h-.05v6.54h-4.01v-13.3h4.01v6.33h.05c.12-.33.25-.64.4-.93l2.65-5.4h4.75l-3.78,6.35,4.14,6.96h-4.86Z"/>
    <path d="M59.48,52.85v-2.66h5.08v2.66h-5.08Z"/>
  </g>
  <path class="cls-8" d="M74.56,56.49l-2.95-5.62c-.2-.45-.32-.75-.35-.92h-.05v6.54h-4.01v-13.3h4.01v6.33h.05c.12-.33.25-.64.4-.93l2.65-5.4h4.75l-3.78,6.35,4.14,6.96h-4.86Z"/>
</svg>