<?xml version="1.0" encoding="UTF-8"?>
<svg id="Layer_1" data-name="Layer 1" xmlns="http://www.w3.org/2000/svg" xmlns:xlink="http://www.w3.org/1999/xlink" viewBox="0 0 425.2 425.2">
  <defs>
    <style>
      .cls-1 {
        stroke-width: 4px;
      }

      .cls-1, .cls-2, .cls-3, .cls-4, .cls-5, .cls-6 {
        fill: none;
      }

      .cls-1, .cls-4, .cls-5, .cls-6 {
        stroke: #f36c3b;
      }

      .cls-7 {
        clip-path: url(#clippath-1);
      }

      .cls-3 {
        stroke: #f79421;
      }

      .cls-8 {
        clip-path: url(#clippath-3);
      }

      .cls-4 {
        stroke-width: 3px;
      }

      .cls-9 {
        fill: #f36c3b;
      }

      .cls-10 {
        fill: #f79440;
      }

      .cls-11 {
        clip-path: url(#clippath-2);
      }

      .cls-5 {
        stroke-width: 10px;
      }

      .cls-6 {
        stroke-width: 2px;
      }

      .cls-12 {
        clip-path: url(#clippath);
      }
    </style>
    <clipPath id="clippath">
      <rect class="cls-2" width="425.2" height="425.2"/>
    </clipPath>
    <clipPath id="clippath-1">
      <rect class="cls-2" width="425.2" height="425.2"/>
    </clipPath>
    <clipPath id="clippath-2">
      <rect class="cls-2" width="425.2" height="425.2"/>
    </clipPath>
    <clipPath id="clippath-3">
      <rect class="cls-2" width="425.2" height="425.2"/>
    </clipPath>
  </defs>
  <g class="cls-12">
    <path class="cls-5" d="M48.59,69.3c-10.89,0-19.72,8.93-19.72,19.95v182.13c0,11.01,8.83,19.94,19.72,19.94h328.01c10.89,0,19.72-8.93,19.72-19.94V89.24c0-11.01-8.83-19.95-19.72-19.95H48.59Z"/>
  </g>
  <polygon class="cls-9" points="191.68 287.92 235.39 287.92 212.54 354.49 191.68 287.92"/>
  <polygon class="cls-1" points="191.68 287.92 235.39 287.92 212.54 354.49 191.68 287.92"/>
  <g class="cls-7">
    <path class="cls-10" d="M184.18,187.63c0,19.83-17.73,35.9-39.6,35.9s-39.6-16.07-39.6-35.9,17.73-35.91,39.6-35.91,39.6,16.07,39.6,35.91M221.44,198.25v-20.9c0-2.94-2.56-5.38-5.72-5.45l-8.66-.19c-1.11-.02-2.36-.82-2.78-1.78l-3.62-8.23c-.42-.96-.11-2.32.7-3.03l5.92-5.25c1.61-1.43,1.66-3.79.1-5.27l-16.63-15.78c-2.21-2.1-5.81-2.11-8.03-.02l-5.33,5c-.79.74-2.28,1.08-3.35.77l-8.83-2.59c-1.06-.31-2-1.4-2.1-2.44l-.92-10.15c-.27-2.93-3.04-5.28-6.2-5.25l-19.38.19c-3.16.03-5.99,2.42-6.33,5.35l-.91,8c-.23,2.06-2.13,4.29-4.24,4.97l-5.73,1.86c-1.05.34-2.58.06-3.4-.64l-7.53-6.33c-1.65-1.39-4.3-1.36-5.92.07l-15.81,13.97c-2.29,2.02-2.38,5.39-.2,7.52l3.55,3.47c2.18,2.13,2.76,5.96,1.29,8.57l-3.64,6.46-11.49.79c-2.22.15-4.02,1.96-4.02,4.03l.04,21.26c0,2.94,2.57,5.47,5.72,5.65,0,0,12.64.73,10.88.73s2.62,6.71,2.62,6.71c1.08,2.76.09,6.63-2.21,8.64l-5.93,5.18c-.81.71-.82,1.86,0,2.58l17.96,15.81c2.3,2.02,6.01,2.02,8.31,0l5.83-5.15c.81-.71,2.29-.96,3.32-.55l8.31,3.31c1.02.41,1.96,1.57,2.1,2.6l1.22,9.34c.27,2.06,2.29,3.73,4.52,3.72l23.2-.02c3.16,0,5.63-2.39,5.53-5.32l-.31-8.24c-.04-1.04.78-2.16,1.83-2.51l8.88-2.98c1.05-.35,2.57-.07,3.39.63l7.45,6.32c1.65,1.4,4.23,1.31,5.76-.19l15.02-14.71c2.18-2.13,2.18-5.59.01-7.73l-4.41-4.35c-.77-.75-1.11-2.16-.77-3.15l2.73-7.94c.68-1.98,3.04-3.58,5.27-3.58h8.9c2.23,0,4.04-1.68,4.04-3.76"/>
    <path class="cls-3" d="M184.18,187.63c0,19.83-17.73,35.9-39.6,35.9s-39.6-16.07-39.6-35.9,17.73-35.91,39.6-35.91,39.6,16.07,39.6,35.91ZM221.44,198.25v-20.9c0-2.94-2.56-5.38-5.72-5.45l-8.66-.19c-1.11-.02-2.36-.82-2.78-1.78l-3.62-8.23c-.42-.96-.11-2.32.7-3.03l5.92-5.25c1.61-1.43,1.66-3.79.1-5.27l-16.63-15.78c-2.21-2.1-5.81-2.11-8.03-.02l-5.33,5c-.79.74-2.28,1.08-3.35.77l-8.83-2.59c-1.06-.31-2-1.4-2.1-2.44l-.92-10.15c-.27-2.93-3.04-5.28-6.2-5.25l-19.38.19c-3.16.03-5.99,2.42-6.33,5.35l-.91,8c-.23,2.06-2.13,4.29-4.24,4.97l-5.73,1.86c-1.05.34-2.58.06-3.4-.64l-7.53-6.33c-1.65-1.39-4.3-1.36-5.92.07l-15.81,13.97c-2.29,2.02-2.38,5.39-.2,7.52l3.55,3.47c2.18,2.13,2.76,5.96,1.29,8.57l-3.64,6.46-11.49.79c-2.22.15-4.02,1.96-4.02,4.03l.04,21.26c0,2.94,2.57,5.47,5.72,5.65,0,0,12.64.73,10.88.73s2.62,6.71,2.62,6.71c1.08,2.76.09,6.63-2.21,8.64l-5.93,5.18c-.81.71-.82,1.86,0,2.58l17.96,15.81c2.3,2.02,6.01,2.02,8.31,0l5.83-5.15c.81-.71,2.29-.96,3.32-.55l8.31,3.31c1.02.41,1.96,1.57,2.1,2.6l1.22,9.34c.27,2.06,2.29,3.73,4.52,3.72l23.2-.02c3.16,0,5.63-2.39,5.53-5.32l-.31-8.24c-.04-1.04.78-2.16,1.83-2.51l8.88-2.98c1.05-.35,2.57-.07,3.39.63l7.45,6.32c1.65,1.4,4.23,1.31,5.76-.19l15.02-14.71c2.18-2.13,2.18-5.59.01-7.73l-4.41-4.35c-.77-.75-1.11-2.16-.77-3.15l2.73-7.94c.68-1.98,3.04-3.58,5.27-3.58h8.9c2.23,0,4.04-1.68,4.04-3.76Z"/>
  </g>
  <polygon class="cls-6" points="240.43 81.23 253.27 91.81 239.7 112.15 230.8 115.67 166.87 175.88 153.01 164.49 216.49 102.66 219.7 94.52 240.43 81.23"/>
  <g class="cls-11">
    <path class="cls-6" d="M79.4,277.53s-18.12-12.78-23.85-19.64c-5.72-6.87,1.13-13.26,1.13-13.26l63.4-64.36,11.03-.29,7.64-7.96,22.78,19.01-7.65,7.95.94,10.22-61.66,65.81s-6.06,6.89-14.06,2.38"/>
    <path class="cls-6" d="M130.73,165.68c-1.22-.99-1.28-2.66-.14-3.73l6.67-6.3c1.14-1.08,3.04-1.14,4.26-.15l39.28,32.08c1.21.99,1.26,2.65.11,3.71l-6.63,6.1c-1.15,1.06-3.07,1.12-4.29.13l-39.25-31.83Z"/>
  </g>
  <g>
    <path d="M229.92,256.47c0,3.96-1.06,7.4-3.18,10.33-2.12,2.93-5.08,5.12-8.9,6.56-3.82,1.44-8.41,2.16-13.78,2.16-6.23,0-11.93-1.05-17.1-3.15v-16.31c2.49,1.83,5.24,3.3,8.26,4.42,3.02,1.12,5.82,1.68,8.43,1.68,1.96,0,3.49-.35,4.57-1.06,1.08-.71,1.62-1.74,1.62-3.09,0-.97-.27-1.82-.81-2.55-.54-.73-1.36-1.42-2.45-2.05-1.09-.64-3.12-1.51-6.08-2.62-9.57-3.68-14.36-9.63-14.36-17.85,0-5.75,2.19-10.36,6.56-13.8,4.37-3.44,10.24-5.17,17.6-5.17,2.07,0,3.98.08,5.73.25,1.74.17,3.33.37,4.75.62,1.43.25,3.43.72,6,1.41v15.15c-5.01-2.74-9.93-4.11-14.78-4.11-1.99,0-3.6.37-4.81,1.12-1.22.75-1.83,1.77-1.83,3.07s.49,2.28,1.47,3.09c.98.82,3.04,1.88,6.16,3.18,6.17,2.49,10.54,5.22,13.09,8.18,2.56,2.96,3.84,6.47,3.84,10.54Z"/>
    <path d="M270.1,274.48l-13.2-25.15c-.89-1.99-1.41-3.36-1.58-4.11h-.21v29.26h-17.93v-59.52h17.93v28.31h.21c.53-1.49,1.12-2.88,1.78-4.15l11.87-24.16h21.25l-16.89,28.39,18.51,31.13h-21.75Z"/>
    <path d="M295.91,258.17v-11.91h22.7v11.91h-22.7Z"/>
  </g>
  <path class="cls-9" d="M363.36,274.48l-13.2-25.15c-.89-1.99-1.41-3.36-1.58-4.11h-.21v29.26h-17.93v-59.52h17.93v28.31h.21c.53-1.49,1.12-2.88,1.78-4.15l11.87-24.16h21.25l-16.89,28.39,18.51,31.13h-21.75Z"/>
  <g class="cls-8">
    <path class="cls-9" d="M153.04,351.06h119.11c1.56,0,2.83,1.27,2.83,2.83v2.67c0,1.56-1.27,2.83-2.83,2.83h-119.11c-1.56,0-2.84-1.27-2.84-2.84v-2.67c0-1.56,1.27-2.84,2.84-2.84Z"/>
    <path class="cls-4" d="M153.04,351.06h119.11c1.56,0,2.83,1.27,2.83,2.83v2.67c0,1.56-1.27,2.83-2.83,2.83h-119.11c-1.56,0-2.84-1.27-2.84-2.84v-2.67c0-1.56,1.27-2.84,2.84-2.84Z"/>
  </g>
</svg>